<?xml version="1.0" encoding="iso-8859-1"?>
<!-- Uploaded to: SVG Repo, www.svgrepo.com, Generator: SVG Repo Mixer Tools -->
<svg fill="#000000" height="800px" width="800px" version="1.1" id="Capa_1" xmlns="http://www.w3.org/2000/svg" xmlns:xlink="http://www.w3.org/1999/xlink" 
	 viewBox="0 0 56.99 56.99" xml:space="preserve">
<path d="M44.089,53.327l-4.811-4.811l1.249-1.249l4.811,4.811L44.089,53.327z M49.417,48.001l-4.811-4.811l1.249-1.249l4.811,4.811
	L49.417,48.001z M46.752,50.664l-4.811-4.811l1.249-1.249l4.811,4.811L46.752,50.664z M56.627,39.241l-4.42-3.656l-2.278,2.278
	l4.811,4.811l1.956-1.956c0.199-0.199,0.305-0.473,0.292-0.754C56.976,39.683,56.844,39.42,56.627,39.241z M33.142,34.503
	l8.038-8.039l-10.038-8.302l-7.171,7.171L33.142,34.503z M35.586,52.207l3.656,4.42c0.179,0.217,0.442,0.349,0.723,0.362
	c0.016,0,0.032,0.001,0.047,0.001c0.265,0,0.519-0.105,0.707-0.293l1.956-1.956l-4.811-4.811L35.586,52.207z M42.728,27.745
	l-8.879,8.88c-0.188,0.188-0.442,0.293-0.707,0.293s-0.52-0.105-0.707-0.293L21.85,26.04c-0.391-0.391-0.391-1.023,0-1.414
	l7.744-7.744L15.549,5.264c-0.397-0.329-0.979-0.301-1.344,0.063l-0.324,0.326L12.068,4.52l-7.547,7.547l1.133,1.812l-0.325,0.325
	c-0.365,0.365-0.392,0.947-0.063,1.344l29.041,35.11l16.354-16.354L42.728,27.745z M52.078,45.338l-4.811-4.811l1.249-1.249
	l4.811,4.811L52.078,45.338z M5.082,0.152C4.687-0.095,4.173-0.036,3.845,0.293L0.294,3.844c-0.33,0.329-0.388,0.842-0.141,1.237
	l3.28,5.246l6.895-6.895L5.082,0.152z"/>
</svg>