<?xml version="1.0" standalone="no"?>
<!DOCTYPE svg PUBLIC "-//W3C//DTD SVG 20010904//EN"
 "http://www.w3.org/TR/2001/REC-SVG-20010904/DTD/svg10.dtd">
<svg version="1.0" xmlns="http://www.w3.org/2000/svg"
 width="1024.000000pt" height="1024.000000pt" viewBox="0 0 1024.000000 1024.000000"
 preserveAspectRatio="xMidYMid meet">

<g transform="translate(0.000000,1024.000000) scale(0.100000,-0.100000)"
fill="#000000" stroke="none">
<path d="M5260 9298 c-40 -27 -70 -79 -70 -124 0 -58 36 -94 155 -155 60 -31
111 -62 113 -68 2 -6 -54 -116 -124 -245 l-128 -234 -139 69 c-77 38 -150 69
-164 69 -65 0 -121 -69 -108 -131 7 -32 46 -69 94 -88 17 -8 31 -17 31 -21 0
-8 -102 -200 -307 -580 -61 -113 -237 -441 -391 -730 -154 -289 -390 -730
-524 -980 -135 -250 -382 -709 -548 -1020 -304 -568 -810 -1507 -1183 -2195
-214 -396 -225 -423 -189 -480 32 -52 444 -284 517 -293 51 -5 106 18 131 56
19 28 185 335 401 742 69 129 214 399 323 600 194 359 532 988 615 1145 46 86
347 649 530 990 62 116 186 347 275 515 90 168 236 440 325 605 89 165 231
431 315 590 84 160 160 304 170 320 10 17 59 109 110 205 51 96 93 176 94 177
1 1 24 -9 51 -22 62 -32 96 -31 134 1 58 49 48 130 -21 172 -18 11 -80 43
-138 72 -58 30 -106 54 -108 55 -1 1 14 31 34 66 20 35 78 145 130 245 l94
180 107 -54 c96 -48 113 -53 156 -49 76 7 127 67 127 149 0 87 -11 95 -328
250 -414 202 -432 210 -482 215 -36 4 -52 0 -80 -19z m258 -206 c97 -49 242
-120 322 -157 145 -68 174 -84 166 -92 -7 -8 -619 289 -661 321 -40 31 -1 14
173 -72z m97 -215 c17 -13 14 -22 -60 -163 -180 -344 -174 -335 -198 -323 -12
7 -24 13 -26 15 -5 4 251 484 259 484 3 0 14 -6 25 -13z m-358 -669 c109 -55
200 -102 201 -104 2 -1 -45 -94 -106 -206 -60 -112 -188 -351 -284 -533 -188
-354 -248 -466 -493 -925 -87 -162 -221 -414 -298 -560 -77 -146 -145 -270
-151 -277 -8 -10 -57 10 -211 87 -110 55 -201 104 -203 110 -2 6 33 79 78 163
405 748 635 1176 1055 1967 182 342 203 380 209 380 3 0 94 -46 203 -102z
m-1260 -2710 c29 -16 53 -32 53 -34 0 -3 -52 -103 -116 -222 -65 -119 -158
-296 -209 -392 -105 -199 -552 -1034 -750 -1400 -73 -135 -242 -450 -375 -700
-291 -546 -277 -523 -302 -517 -33 9 -380 210 -385 223 -4 11 138 279 412 779
45 83 202 373 348 645 146 272 334 624 419 781 84 157 241 450 348 650 l195
365 154 -74 c85 -40 178 -87 208 -104z"/>
<path d="M6627 8493 c-19 -23 -122 -199 -217 -373 -40 -74 -94 -171 -120 -215
-26 -44 -126 -226 -223 -405 -528 -981 -685 -1274 -892 -1660 -125 -234 -284
-531 -353 -660 -69 -129 -158 -296 -200 -370 -90 -163 -968 -1793 -1006 -1867
-34 -68 -33 -87 8 -119 29 -23 33 -31 26 -53 -65 -208 -384 -1120 -430 -1226
-27 -63 -26 -116 3 -142 28 -27 414 -257 663 -396 132 -74 200 -107 223 -107
27 0 52 19 169 127 76 71 221 205 323 298 101 94 279 259 396 368 l212 198 30
-16 c61 -31 74 -22 181 130 35 50 220 304 410 565 190 261 411 565 490 675 79
110 262 363 407 562 144 199 335 465 425 590 89 126 322 453 518 728 196 275
468 658 605 850 137 193 272 382 300 420 28 39 134 189 235 335 101 146 191
276 202 289 25 32 23 73 -4 98 -45 41 -2318 1393 -2341 1393 -13 0 -31 -8 -40
-17z m206 -228 c54 -32 100 -61 102 -65 5 -7 -36 -79 -226 -402 l-69 -117
-120 72 -119 72 28 50 c15 27 81 146 146 263 113 205 118 212 139 199 11 -8
65 -40 119 -72z m486 -291 c2 -2 -61 -113 -141 -246 -80 -134 -149 -250 -154
-259 -8 -14 -27 -6 -136 60 -70 42 -127 81 -125 87 1 6 69 124 151 262 l149
250 126 -76 c69 -41 128 -77 130 -78z m274 -163 c59 -35 109 -66 111 -70 6
-10 -303 -516 -313 -514 -5 1 -65 36 -134 78 l-125 75 155 260 c148 248 156
259 177 247 12 -6 70 -41 129 -76z m-587 -514 c329 -200 721 -438 869 -529
149 -90 333 -202 410 -248 77 -46 142 -85 143 -86 2 -1 -185 -267 -415 -591
-231 -323 -586 -822 -789 -1108 -363 -510 -1161 -1614 -1433 -1983 -214 -291
-379 -518 -457 -629 l-71 -101 -79 45 c-105 61 -737 433 -1099 648 -159 95
-300 178 -312 184 -21 11 -22 14 -9 34 8 12 152 279 321 592 169 314 354 656
410 760 419 773 1096 2035 1650 3072 l187 352 37 -24 c21 -12 307 -187 637
-388z m1086 202 c-2 -7 -71 -126 -154 -265 l-151 -251 -121 73 c-67 40 -127
78 -135 83 -12 8 11 52 119 233 73 123 144 240 157 260 l23 37 132 -79 c76
-44 132 -84 130 -91z m263 -145 c81 -49 125 -81 121 -89 -4 -12 -73 -126 -241
-402 -38 -62 -71 -111 -74 -109 -3 2 -63 38 -132 80 l-126 77 156 259 c86 143
159 259 163 260 4 0 64 -34 133 -76z m378 -226 c67 -39 124 -72 125 -74 2 -1
-74 -118 -169 -258 l-172 -255 -41 25 c-23 13 -74 43 -113 67 -40 23 -73 45
-73 49 0 9 311 518 317 518 2 0 59 -32 126 -72z m-4364 -4743 c320 -189 611
-361 646 -381 36 -19 65 -38 65 -41 0 -4 -64 -65 -207 -197 l-52 -47 -368 219
c-780 464 -784 466 -779 482 3 8 26 76 51 150 25 74 48 141 50 148 2 6 6 12 8
12 2 0 266 -155 586 -345z m-249 -410 c267 -158 509 -302 538 -319 28 -17 51
-34 50 -38 -4 -10 -606 -568 -613 -568 -12 0 -726 418 -743 435 -2 2 25 81 61
177 35 95 98 270 138 390 41 119 76 215 79 213 3 -1 223 -132 490 -290z"/>
</g>
</svg>
