<?xml version='1.0' encoding='iso-8859-1'?>
<!DOCTYPE svg PUBLIC '-//W3C//DTD SVG 1.1//EN' 'http://www.w3.org/Graphics/SVG/1.1/DTD/svg11.dtd'>
<!-- Uploaded to: SVG Repo, www.svgrepo.com, Generator: SVG Repo Mixer Tools -->
<svg fill="#000000" height="800px" width="800px" version="1.1" xmlns="http://www.w3.org/2000/svg" viewBox="0 0 308.752 308.752" xmlns:xlink="http://www.w3.org/1999/xlink" enable-background="new 0 0 308.752 308.752">
  <path d="m271.043,176.565h-19.334v-11.5c0-6.996-5.671-12.667-12.667-12.667h-68.634c1.653-19.838 6.28-38.582 10.834-50.225l50.739,22.249c10.196,4.477 22.091-0.15 26.569-10.368l23.294-53.118c4.474-10.205-0.161-22.092-10.371-26.566l-74.485-32.664c-10.207-4.477-22.094,0.159-26.569,10.37l-12.687,28.934c-1.21,2.755-1.524,5.768-0.908,8.711l2.183,10.433c0.879,4.193 3.557,7.746 7.344,9.746l.631,.333 .458,6.887 2.806,7.187c-15.144,19.94-25.036,44.175-32.11,68.091h-68.427c-6.996,0-12.667,5.671-12.667,12.667v11.5h-19.333c-9.665,0-17.5,7.835-17.5,17.5s7.835,17.5 17.5,17.5h19.334c0,55.922 45.001,97.188 97.333,97.188 52.217,0 97.333-41.159 97.333-97.188h19.334c9.665,0 17.5-7.835 17.5-17.5s-7.835-17.5-17.5-17.5zm-79.67-150.023l65.634,28.781-19.411,44.264-41.685-18.279-3.783-9.692-.599-8.979c-0.334-5-3.179-9.385-7.616-11.733l-1.463-.772-.459-2.194 9.382-21.396zm35.336,186.033c0,39.247-32.449,71.177-72.333,71.177s-72.333-31.93-72.333-71.177v-35.177h144.667v35.177z"/>
</svg>