<?xml version="1.0" encoding="iso-8859-1"?>
<!-- Uploaded to: SVG Repo, www.svgrepo.com, Generator: SVG Repo Mixer Tools -->
<svg fill="#000000" height="800px" width="800px" version="1.1" id="Layer_1" xmlns="http://www.w3.org/2000/svg" xmlns:xlink="http://www.w3.org/1999/xlink" 
	 viewBox="0 0 512 512" xml:space="preserve">
<g>
	<g>
		<path d="M343.473,105.357c-8.596-8.484-18.957-14.553-30.24-17.879V43.352C313.233,19.448,293.784,0,269.88,0h-27.76
			c-23.906,0-43.353,19.448-43.353,43.352v44.127c-11.283,3.327-21.644,9.395-30.24,17.879c-13.669,13.49-21.51,32.24-21.51,51.446
			V512h217.967V156.803C364.983,137.599,357.142,118.847,343.473,105.357z M232.155,43.352c0.001-5.492,4.47-9.961,9.963-9.961
			h27.76c5.494,0,9.962,4.469,9.962,9.961v41.173h-47.685V43.352z M180.407,478.609V156.803c0-10.332,4.218-20.421,11.572-27.679
			c7.324-7.228,17.025-11.208,27.315-11.208h73.409c10.29,0,19.991,3.98,27.315,11.208c7.354,7.258,11.572,17.346,11.572,27.679
			v321.805H180.407z"/>
	</g>
</g>
<g>
	<g>
		<path d="M194.781,223.841v164.492h122.435V223.841H194.781z M283.825,354.941h-55.652v-97.709h55.652V354.941z"/>
	</g>
</g>
</svg>